<svg xmlns="http://www.w3.org/2000/svg" viewBox="0 0 600 600"><defs><linearGradient id="bgtrio" x1="0" y1="0" x2="1" y2="1"><stop offset="0" stop-color="#faf3ef"/><stop offset="1" stop-color="#f1e4e2"/></linearGradient><linearGradient id="frosttrio" x1="0" y1="0" x2="1" y2="0"><stop offset="0" stop-color="#fff" stop-opacity=".55"/><stop offset=".35" stop-color="#fff" stop-opacity=".15"/><stop offset="1" stop-color="#fff" stop-opacity=".45"/></linearGradient></defs><rect width="600" height="600" fill="url(#bgtrio)"/><ellipse cx="170" cy="522" rx="75" ry="10" fill="#2a2e2d" opacity=".08"/>
<rect x="120" y="269.2" width="100" height="250.8" rx="18" fill="#f7b8c6" opacity=".55"/>
<rect x="120" y="269.2" width="100" height="250.8" rx="18" fill="url(#frosttrio)"/>
<path d="M120 275.2V210a50 50 0 0 1 100 0V275.2z" fill="#f19bb0"/>
<rect x="120" y="271.2" width="100" height="8" fill="#f19bb0" opacity=".7"/>
<text x="170" y="385.36" text-anchor="middle" font-family="Helvetica, Arial, sans-serif" font-weight="900" font-size="30" letter-spacing="-1" fill="#fff">skkin.</text>
<ellipse cx="300" cy="522" rx="75" ry="10" fill="#2a2e2d" opacity=".08"/>
<rect x="250" y="269.2" width="100" height="250.8" rx="18" fill="#e26a86" opacity=".55"/>
<rect x="250" y="269.2" width="100" height="250.8" rx="18" fill="url(#frosttrio)"/>
<path d="M250 275.2V210a50 50 0 0 1 100 0V275.2z" fill="#8e1f3c"/>
<rect x="250" y="271.2" width="100" height="8" fill="#8e1f3c" opacity=".7"/>
<text x="300" y="385.36" text-anchor="middle" font-family="Helvetica, Arial, sans-serif" font-weight="900" font-size="30" letter-spacing="-1" fill="#fff">skkin.</text>
<ellipse cx="430" cy="522" rx="75" ry="10" fill="#2a2e2d" opacity=".08"/>
<rect x="380" y="269.2" width="100" height="250.8" rx="18" fill="#c6a3df" opacity=".55"/>
<rect x="380" y="269.2" width="100" height="250.8" rx="18" fill="url(#frosttrio)"/>
<path d="M380 275.2V210a50 50 0 0 1 100 0V275.2z" fill="#8d55b8"/>
<rect x="380" y="271.2" width="100" height="8" fill="#8d55b8" opacity=".7"/>
<text x="430" y="385.36" text-anchor="middle" font-family="Helvetica, Arial, sans-serif" font-weight="900" font-size="30" letter-spacing="-1" fill="#fff">skkin.</text>
</svg>
